<svg id="Ebene_1" data-name="Ebene 1" xmlns="http://www.w3.org/2000/svg" viewBox="0 0 30 30"><defs><style>.cls-1{fill:#e4e233;}.cls-2{fill:#383737;}</style></defs><circle id="Ellipse_29" data-name="Ellipse 29" class="cls-1" cx="15" cy="15" r="14"/><path class="cls-2" d="M20.66,10.63H19.59L18.26,8a.77.77,0,0,0-1.41.1.8.8,0,0,0,0,.59l1,2H12.13l1-2a.78.78,0,0,0,0-.58.77.77,0,0,0-.39-.44.73.73,0,0,0-.58,0,.75.75,0,0,0-.44.38l-1.33,2.66H9.34a1.79,1.79,0,0,0-1.79,1.78,1.74,1.74,0,0,0,.55,1.3l1,6.56a2.78,2.78,0,0,0,2.71,2.18h6.27a2.8,2.8,0,0,0,2.87-2.2l1-6.55a1.77,1.77,0,0,0,.53-1.27A1.8,1.8,0,0,0,20.66,10.63Zm.27,1.8a.27.27,0,0,1-.27.26H9.35a.27.27,0,1,1,0-.53H20.66A.27.27,0,0,1,20.93,12.43Zm-.64,1.79L19.42,20a1.27,1.27,0,0,1-1.35.91H11.92A1.28,1.28,0,0,1,10.59,20l-.87-5.81Z"/><path class="cls-2" d="M15,20.39v-.25h0v.25a.77.77,0,0,0,.77-.76V15.51a.77.77,0,0,0-.77-.76.76.76,0,0,0-.76.76v4.12A.76.76,0,0,0,15,20.39Z"/><path class="cls-2" d="M17.57,19.88v-.25h0v.25a.77.77,0,0,0,.76-.77V16a.77.77,0,1,0-1.53,0v3.08A.77.77,0,0,0,17.57,19.88Z"/><path class="cls-2" d="M12.43,19.88v-.25h0v.25a.78.78,0,0,0,.77-.77V16a.78.78,0,0,0-.77-.77.77.77,0,0,0-.76.77v3.08A.77.77,0,0,0,12.43,19.88Z"/></svg>