<svg id="Ebene_1" data-name="Ebene 1" xmlns="http://www.w3.org/2000/svg" viewBox="0 0 30 30"><defs><style>.cls-1{fill:#e46858;}.cls-2{fill:#f5f5f5;}</style></defs><circle id="Ellipse_59" data-name="Ellipse 59" class="cls-1" cx="15" cy="15" r="14"/><path id="Path_85" data-name="Path 85" class="cls-2" d="M18.66,20.21a2.37,2.37,0,0,0-1.66.33A6.08,6.08,0,0,1,11.32,20,5.88,5.88,0,0,1,9.55,18h4.17a1,1,0,1,0,0-2H8.82a5.56,5.56,0,0,1-.1-1h5a1,1,0,1,0,0-2H9.08a6,6,0,0,1,7.57-3.65q.32.12.63.27a2.31,2.31,0,0,0,1.2.36,1,1,0,0,0,.79-1.16,1.42,1.42,0,0,0-.07-.22A1.67,1.67,0,0,0,18.45,8a8.11,8.11,0,0,0-3.67-1,7.59,7.59,0,0,0-3.35.71A8.29,8.29,0,0,0,8.82,9.67a7.57,7.57,0,0,0-1.47,2.27A8,8,0,0,0,7,13H5.72a1,1,0,1,0,0,2h1a8.26,8.26,0,0,0,.06,1H5.72a1,1,0,1,0,0,2H7.33a7.75,7.75,0,0,0,.79,1.51A8,8,0,0,0,14.92,23a10.87,10.87,0,0,0,3.28-.7,1.82,1.82,0,0,0,.92-.57,1,1,0,0,0-.3-1.41l-.15-.08"/><path class="cls-2" d="M23.15,15.53l1.07-1.08a.84.84,0,0,0,.28-.63,1,1,0,0,0-.25-.65.91.91,0,0,0-.64-.27.88.88,0,0,0-.66.27l-1.08,1.08-1.08-1.08a.91.91,0,0,0-1.55.64.91.91,0,0,0,.27.64l1.08,1.08-1.08,1.08a.9.9,0,0,0,.64,1.54h0a.9.9,0,0,0,.64-.26l1.08-1.08L23,17.89a.91.91,0,0,0,1.28,0,1,1,0,0,0,.27-.64.91.91,0,0,0-.27-.64Z"/></svg>