<svg id="Ebene_1" data-name="Ebene 1" xmlns="http://www.w3.org/2000/svg" viewBox="0 0 30 30"><defs><style>.cls-1{fill:#e46858;}.cls-2{fill:#f5f5f5;}</style></defs><path id="Path_120" data-name="Path 120" class="cls-1" d="M15,1A14,14,0,1,1,1,15,14,14,0,0,1,15,1Z"/><g id="Group_128" data-name="Group 128"><g id="Group_129" data-name="Group 129"><path id="Path_39" data-name="Path 39" class="cls-2" d="M19.94,18.54,16.41,15l3.53-3.54a1,1,0,0,0,0-1.41,1,1,0,0,0-1.42,0l0,0L15,13.59l-3.53-3.53a1,1,0,0,0-1.42,0,1,1,0,0,0,0,1.41L13.58,15,10,18.54A1,1,0,0,0,11.46,20L15,16.42,18.53,20a1,1,0,0,0,1.41,0,1,1,0,0,0,0-1.42"/></g></g></svg>