<svg id="Ebene_1" data-name="Ebene 1" xmlns="http://www.w3.org/2000/svg" viewBox="0 0 30 30"><defs><style>.cls-1{fill:#e4e233;}.cls-2{fill:#383737;stroke:#383737;stroke-miterlimit:10;stroke-width:0.5px;}</style></defs><g id="ArrowLeft"><circle id="Ellipse_37" data-name="Ellipse 37" class="cls-1" cx="15" cy="15" r="14"/></g><g id="Group_179" data-name="Group 179"><g id="Group_178" data-name="Group 178"><path id="Path_106" data-name="Path 106" class="cls-2" d="M20.08,7.44a2.54,2.54,0,0,0-3.66.9L11,17.52h0l-.28.48a.53.53,0,0,0-.08.32l.1,4.12a.55.55,0,0,0,.54.56.8.8,0,0,0,.21-.05L15,21.26a.54.54,0,0,0,.24-.21l.28-.49,5.38-9.18a3,3,0,0,0-.84-3.94m-.56,1a1.79,1.79,0,0,1,.5,2.36l-2.7-1.83a1.53,1.53,0,0,1,2.2-.53m-4.6,11.06-2.7-1.82,4.53-7.74,2.7,1.83Zm-3.17-.8,2.52,1.71-2.45,1.17Z"/></g></g></svg>